# xmcd CD database file
#
# Track frame offsets:
#	150
#	14587
#	29402
#	44924
#	62635
#	78873
#	94824
#	113145
#	123749
#	138579
#	155535
#	176089
#	195364
#	211831
#
# Disc length: 2971 seconds
#
# Revision: 0
# Processed by: cddbd v1.5.1PL0 Copyright (c) Steve Scherf et al.
# Submitted via: CDex 1.40Release
#
DISCID=c60b990e
DTITLE=REDNEX - Sex And Violines
DYEAR=1900
DGENRE=Country
TTITLE0=Cotton Eye Joe
TTITLE1=Hittin´ The Hay
TTITLE2=Riding Alone
TTITLE3=Wish you Were Here
TTITLE4=Mary Lou
TTITLE5=Old Pop In An Oak
TTITLE6=Nowhere In Idaho
TTITLE7=Sad But True Story Of Ray Mingus
TTITLE8=Fat Sally Lee
TTITLE9=Shooter
TTITLE10=McKenzie Brothers
TTITLE11=Rolling Home
TTITLE12=Wild And Free
TTITLE13=Highway To Hell
EXTD=ID3G: 2
EXTT0=
EXTT1=
EXTT2=
EXTT3=
EXTT4=
EXTT5=
EXTT6=
EXTT7=
EXTT8=
EXTT9=
EXTT10=
EXTT11=
EXTT12=
EXTT13=
PLAYORDER=
